<svg width="40" height="68" viewBox="0 0 40 68" fill="none" xmlns="http://www.w3.org/2000/svg">
<path fill-rule="evenodd" clip-rule="evenodd" d="M36.5226 0C38.4424 0.0002876 39.9991 1.54661 39.9992 3.45404L40 41.3617C40.0001 44.0169 38.9384 46.564 37.0487 48.4416L20.9581 64.4277C16.1637 69.1909 8.39044 69.1906 3.5959 64.4277C-1.19863 59.6643 -1.19863 51.9408 3.5959 47.1774L13.8861 36.954C14.8842 35.9622 15.4451 34.6168 15.4452 33.2142V3.45404C15.4453 1.54648 17.0018 9.93575e-05 18.9218 0H36.5226ZM17.9985 19.0249V33.2142C17.9984 35.2895 17.1682 37.28 15.6913 38.7475L5.4011 48.9717C1.60379 52.7445 1.6038 58.8607 5.4011 62.6334C9.19856 66.406 15.3555 66.4062 19.1529 62.6334L35.2435 46.6481C36.6543 45.2463 37.4468 43.3441 37.4468 41.3617L37.446 19.0249H17.9985ZM17.9985 16.4882H37.446V13.9516H17.9985V16.4882ZM18.9218 2.53665C18.4119 2.53675 17.9985 2.94743 17.9985 3.45404V8.87827H37.446V3.45404C37.4459 2.94755 37.0323 2.53694 36.5226 2.53665H18.9218Z" fill="black"/>
</svg>
